<svg id="svg" version="1.1" xmlns="http://www.w3.org/2000/svg" xmlns:xlink="http://www.w3.org/1999/xlink" width="400" height="400" viewBox="0, 0, 400,400"><g id="svgg"><path id="path0" d="M0.000 200.000 L 0.000 400.000 200.000 400.000 L 400.000 400.000 400.000 200.000 L 400.000 0.000 200.000 0.000 L 0.000 0.000 0.000 200.000 M300.000 184.833 L 300.000 285.000 200.000 285.000 L 100.000 285.000 100.000 184.833 L 100.000 84.667 200.000 84.667 L 300.000 84.667 300.000 184.833 M157.000 185.000 L 157.000 250.000 202.000 250.000 L 247.000 250.000 247.000 235.669 L 247.000 221.337 219.083 221.252 L 191.167 221.167 191.079 209.583 L 190.991 198.000 213.996 198.000 L 237.000 198.000 237.000 183.669 L 237.000 169.338 214.083 169.252 L 191.167 169.167 191.079 158.917 L 190.990 148.667 217.995 148.667 L 245.000 148.667 245.000 134.333 L 245.000 120.000 201.000 120.000 L 157.000 120.000 157.000 185.000 M201.733 318.027 C 201.848 326.845,201.863 326.890,204.573 326.534 L 205.979 326.349 206.490 328.071 C 207.080 330.056,206.984 330.190,204.731 330.531 C 198.415 331.486,196.899 329.603,196.725 320.583 L 196.604 314.333 194.469 314.333 L 192.333 314.333 192.333 312.333 L 192.333 310.333 196.983 310.333 L 201.632 310.333 201.733 318.027 M231.667 320.333 L 231.667 330.333 229.689 330.333 C 228.026 330.333,227.679 330.231,227.507 329.687 C 227.309 329.066,227.257 329.072,226.104 329.854 C 223.278 331.772,219.173 330.112,218.039 326.592 C 215.943 320.084,221.038 313.355,225.843 316.285 L 226.853 316.901 226.721 313.617 L 226.589 310.333 229.128 310.333 L 231.667 310.333 231.667 320.333 M279.367 311.721 C 279.990 311.934,280.989 312.436,281.586 312.837 L 282.673 313.566 281.339 315.081 L 280.005 316.597 278.765 315.965 C 275.533 314.317,273.000 316.539,273.000 321.022 C 273.000 325.248,275.826 327.818,278.667 326.175 C 279.125 325.910,279.675 325.601,279.889 325.488 C 280.287 325.279,282.645 327.563,282.654 328.167 C 282.671 329.339,278.560 330.803,275.859 330.586 C 270.109 330.125,266.675 324.885,267.985 318.573 C 269.063 313.382,274.556 310.075,279.367 311.721 M304.869 312.400 C 306.898 313.463,306.923 313.580,305.483 315.263 C 304.315 316.627,304.265 316.648,303.345 316.173 C 300.968 314.943,298.183 315.277,298.396 316.766 C 298.478 317.331,299.223 317.796,301.833 318.913 C 305.493 320.479,306.837 321.627,307.186 323.485 C 308.258 329.200,301.110 332.637,294.757 329.462 C 292.484 328.325,292.464 328.232,294.084 326.339 L 295.335 324.878 296.655 325.620 C 298.497 326.655,301.027 326.925,301.785 326.167 C 302.696 325.256,301.824 324.344,298.755 323.000 C 295.290 321.482,294.547 320.957,293.883 319.558 C 292.295 316.212,293.831 313.223,298.000 311.547 C 299.210 311.060,303.275 311.565,304.869 312.400 M329.869 312.400 C 331.898 313.463,331.923 313.580,330.483 315.263 C 329.315 316.627,329.265 316.648,328.345 316.173 C 325.968 314.943,323.183 315.277,323.396 316.766 C 323.478 317.331,324.223 317.796,326.833 318.913 C 330.493 320.479,331.837 321.627,332.186 323.485 C 333.258 329.200,326.110 332.637,319.757 329.462 C 317.484 328.325,317.464 328.232,319.084 326.339 L 320.335 324.878 321.655 325.620 C 323.497 326.655,326.027 326.925,326.785 326.167 C 327.696 325.256,326.824 324.344,323.755 323.000 C 320.290 321.482,319.547 320.957,318.883 319.558 C 317.295 316.212,318.831 313.223,323.000 311.547 C 324.210 311.060,328.275 311.565,329.869 312.400 M81.365 312.000 C 81.382 312.183,81.410 313.046,81.428 313.917 L 81.459 315.500 77.563 315.594 L 73.667 315.688 73.667 317.344 L 73.667 319.000 77.000 319.000 L 80.333 319.000 80.333 321.000 L 80.333 323.000 77.000 323.000 L 73.667 323.000 73.667 324.667 L 73.667 326.333 77.667 326.333 L 81.667 326.333 81.667 328.333 L 81.667 330.333 75.167 330.333 L 68.667 330.333 68.667 321.000 L 68.667 311.667 75.000 311.667 C 78.979 311.667,81.345 311.791,81.365 312.000 M100.969 316.536 L 101.652 317.405 102.685 316.536 C 106.201 313.577,108.000 316.337,108.000 324.688 L 108.000 330.333 105.667 330.333 L 103.333 330.333 103.333 325.222 C 103.333 319.999,103.230 319.394,102.447 320.044 C 102.110 320.324,102.000 321.632,102.000 325.374 L 102.000 330.333 100.000 330.333 L 98.000 330.333 98.000 325.000 C 98.000 321.581,97.877 319.667,97.658 319.667 C 96.960 319.667,96.667 321.498,96.667 325.855 L 96.667 330.333 94.333 330.333 L 92.000 330.333 92.000 323.167 L 92.000 316.000 94.000 316.000 C 95.894 316.000,96.000 316.043,96.000 316.808 L 96.000 317.615 96.974 316.641 C 98.276 315.339,99.992 315.294,100.969 316.536 M128.583 316.374 C 130.965 317.526,132.367 320.432,132.062 323.583 L 131.958 324.667 127.309 324.667 C 122.758 324.667,122.670 324.681,123.074 325.327 C 123.879 326.616,126.447 327.013,128.723 326.200 L 129.947 325.764 130.810 327.350 L 131.674 328.937 130.149 329.675 C 124.620 332.352,118.361 329.490,117.772 324.016 C 117.141 318.146,123.280 313.807,128.583 316.374 M156.642 315.978 C 157.045 316.233,157.054 316.567,156.700 318.148 L 156.282 320.016 154.686 319.804 C 150.852 319.296,149.333 321.230,149.333 326.623 L 149.333 330.333 146.833 330.333 L 144.333 330.333 144.333 323.167 L 144.333 316.000 146.298 316.000 C 148.433 316.000,148.667 316.202,148.667 318.053 L 148.667 319.051 149.570 317.978 C 151.145 316.106,155.084 314.992,156.642 315.978 M178.256 316.183 C 181.266 317.440,182.000 319.345,182.000 325.894 L 182.000 330.333 179.833 330.333 C 177.889 330.333,177.667 330.265,177.667 329.667 C 177.667 328.825,177.654 328.826,175.595 329.870 C 172.336 331.521,168.129 330.082,167.953 327.255 C 167.720 323.517,169.262 322.032,174.168 321.269 C 176.897 320.845,177.239 320.366,175.184 319.848 C 174.171 319.593,173.523 319.668,171.943 320.221 L 169.967 320.913 169.150 319.301 C 168.701 318.414,168.333 317.626,168.333 317.550 C 168.333 317.383,171.558 316.099,172.500 315.891 C 174.055 315.548,177.107 315.703,178.256 316.183 M123.741 320.186 C 122.503 321.053,122.892 321.333,125.333 321.333 C 126.617 321.333,127.667 321.192,127.667 321.019 C 127.667 320.494,126.239 319.667,125.333 319.667 C 124.865 319.667,124.148 319.900,123.741 320.186 M223.485 320.485 C 221.999 321.970,222.521 326.117,224.248 326.550 C 226.140 327.025,226.667 326.292,226.667 323.186 C 226.667 319.588,225.431 318.539,223.485 320.485 M174.471 324.314 C 173.040 324.656,172.667 324.939,172.667 325.680 C 172.667 327.326,176.743 326.587,176.939 324.905 C 177.054 323.916,176.596 323.806,174.471 324.314 " stroke="none" fill="#fcfcfc" fill-rule="evenodd"></path><path id="path1" d="M100.000 184.833 L 100.000 284.667 200.000 284.667 L 300.000 284.667 300.000 184.833 L 300.000 85.000 200.000 85.000 L 100.000 85.000 100.000 184.833 M245.333 134.298 C 245.333 145.440,245.241 148.626,244.917 148.734 C 244.688 148.810,232.537 148.863,217.917 148.852 L 191.333 148.831 191.333 158.916 L 191.333 169.000 214.333 169.000 L 237.333 169.000 237.333 183.500 L 237.333 198.000 214.333 198.000 L 191.333 198.000 191.333 209.500 L 191.333 221.000 219.333 221.000 L 247.333 221.000 247.333 235.500 L 247.333 250.000 202.000 250.000 L 156.667 250.000 156.667 185.000 L 156.667 120.000 201.000 120.000 L 245.333 120.000 245.333 134.298 " stroke="none" fill="#8c54a4" fill-rule="evenodd"></path><path id="path2" d="M149.917 84.917 C 177.462 84.964,222.537 84.964,250.083 84.917 C 277.629 84.870,255.092 84.831,200.000 84.831 C 144.908 84.831,122.371 84.870,149.917 84.917 M245.153 134.333 C 245.153 142.308,245.196 145.571,245.250 141.583 C 245.303 137.596,245.303 131.071,245.250 127.083 C 245.196 123.096,245.153 126.358,245.153 134.333 M202.750 169.250 C 209.121 169.301,219.546 169.301,225.917 169.250 C 232.287 169.199,227.075 169.158,214.333 169.158 C 201.592 169.158,196.379 169.199,202.750 169.250 M219.080 221.250 L 246.993 221.337 247.083 235.752 L 247.174 250.167 247.254 235.583 L 247.333 221.000 219.250 221.081 L 191.167 221.163 219.080 221.250 M192.667 312.333 L 192.667 314.333 194.833 314.333 L 197.000 314.333 197.000 320.344 C 197.000 329.295,198.562 331.402,204.432 330.368 C 206.903 329.933,206.820 330.030,206.357 328.100 L 205.973 326.497 204.468 326.617 C 201.691 326.838,201.667 326.762,201.667 317.948 L 201.667 310.333 197.167 310.333 L 192.667 310.333 192.667 312.333 M227.000 313.694 C 227.000 315.543,226.887 316.998,226.750 316.927 C 221.638 314.295,217.833 317.029,217.833 323.333 C 217.833 329.063,221.957 332.269,226.063 329.731 C 227.516 328.833,227.667 328.827,227.667 329.667 C 227.667 330.259,227.889 330.333,229.667 330.333 L 231.667 330.333 231.667 320.333 L 231.667 310.333 229.333 310.333 L 227.000 310.333 227.000 313.694 M274.667 311.687 C 266.639 313.321,265.438 326.354,273.000 329.777 C 275.103 330.729,278.318 330.693,280.400 329.694 C 282.804 328.540,282.905 328.266,281.499 326.709 L 280.289 325.370 279.228 326.017 C 275.512 328.283,271.607 324.278,272.867 319.494 C 273.107 318.580,273.311 317.749,273.319 317.647 C 273.452 315.949,277.000 314.799,278.966 315.816 C 280.307 316.509,282.977 313.989,281.833 313.109 C 280.073 311.753,277.170 311.177,274.667 311.687 M298.500 311.645 C 291.441 313.363,291.614 319.803,298.802 322.891 C 300.434 323.593,301.934 324.429,302.133 324.750 C 303.246 326.537,299.709 327.307,296.906 325.887 L 295.312 325.080 294.128 326.526 C 292.802 328.144,292.848 328.406,294.624 329.312 C 300.322 332.218,307.003 329.779,306.999 324.794 C 306.997 321.915,305.973 320.799,301.667 318.983 C 298.755 317.755,297.965 317.155,298.248 316.385 C 298.709 315.135,301.464 314.907,303.215 315.975 L 304.264 316.615 305.299 315.327 C 306.548 313.772,306.566 313.562,305.509 312.870 C 303.772 311.732,300.495 311.159,298.500 311.645 M323.500 311.645 C 316.441 313.363,316.614 319.803,323.802 322.891 C 325.434 323.593,326.934 324.429,327.133 324.750 C 328.246 326.537,324.709 327.307,321.906 325.887 L 320.312 325.080 319.128 326.526 C 317.802 328.144,317.848 328.406,319.624 329.312 C 325.322 332.218,332.003 329.779,331.999 324.794 C 331.997 321.915,330.973 320.799,326.667 318.983 C 323.755 317.755,322.965 317.155,323.248 316.385 C 323.709 315.135,326.464 314.907,328.215 315.975 L 329.264 316.615 330.299 315.327 C 331.548 313.772,331.566 313.562,330.509 312.870 C 328.772 311.732,325.495 311.159,323.500 311.645 M69.000 321.000 L 69.000 330.333 75.333 330.333 L 81.667 330.333 81.667 328.333 L 81.667 326.333 77.667 326.333 L 73.667 326.333 73.667 324.667 L 73.667 323.000 76.833 323.000 C 78.704 323.000,80.011 322.864,80.028 322.667 C 80.043 322.483,80.056 321.808,80.056 321.167 C 80.056 320.525,80.043 319.775,80.028 319.500 C 80.005 319.093,79.414 319.000,76.833 319.000 L 73.667 319.000 73.667 317.333 L 73.667 315.667 77.500 315.667 L 81.333 315.667 81.333 313.667 L 81.333 311.667 75.167 311.667 L 69.000 311.667 69.000 321.000 M98.333 315.901 C 98.058 316.001,97.429 316.460,96.934 316.920 L 96.035 317.757 95.815 316.879 C 95.614 316.079,95.448 316.000,93.964 316.000 L 92.333 316.000 92.333 323.167 L 92.333 330.333 94.500 330.333 L 96.667 330.333 96.672 325.417 C 96.677 320.377,96.869 319.417,97.800 319.774 C 98.257 319.950,98.333 320.717,98.333 325.156 L 98.333 330.333 100.000 330.333 L 101.667 330.333 101.667 325.645 C 101.667 320.960,101.922 319.667,102.845 319.667 C 103.254 319.667,103.333 320.538,103.333 325.000 L 103.333 330.333 105.624 330.333 L 107.915 330.333 107.847 324.417 C 107.770 317.812,107.480 316.682,105.700 316.061 C 104.347 315.590,103.327 315.887,102.291 317.055 L 101.416 318.042 101.216 317.245 C 101.106 316.806,100.630 316.272,100.159 316.057 C 99.235 315.636,99.095 315.624,98.333 315.901 M123.074 316.157 C 116.162 318.315,116.323 328.808,123.289 330.232 C 125.779 330.741,130.541 330.012,131.148 329.030 C 131.497 328.465,129.924 325.957,129.373 326.199 C 127.888 326.851,124.511 326.739,123.583 326.008 C 122.088 324.829,122.447 324.690,127.250 324.593 L 131.833 324.500 131.935 323.103 C 132.304 318.031,127.965 314.629,123.074 316.157 M152.598 316.050 C 151.918 316.238,150.798 316.974,150.109 317.683 C 148.739 319.096,148.347 318.963,148.338 317.083 L 148.333 316.000 146.333 316.000 L 144.333 316.000 144.333 323.167 L 144.333 330.333 146.667 330.333 L 149.000 330.333 149.000 326.817 C 149.000 321.497,150.137 319.874,153.936 319.776 L 156.152 319.718 156.562 318.112 C 156.788 317.228,156.866 316.399,156.736 316.270 C 156.300 315.834,153.844 315.704,152.598 316.050 M172.833 315.992 C 169.187 316.756,168.341 317.432,169.154 318.933 C 170.129 320.732,170.115 320.724,171.430 320.174 C 172.934 319.546,175.664 319.515,176.487 320.116 C 177.371 320.763,176.925 321.189,175.271 321.277 C 171.268 321.489,168.426 323.170,168.112 325.512 C 167.538 329.792,171.557 331.807,176.051 329.493 L 177.601 328.694 177.807 329.514 C 177.994 330.260,178.177 330.333,179.840 330.333 L 181.667 330.333 181.667 325.355 C 181.667 317.233,179.231 314.651,172.833 315.992 M127.022 320.012 C 128.510 320.808,127.768 321.333,125.155 321.333 C 122.785 321.333,122.662 321.297,122.984 320.696 C 123.536 319.665,125.691 319.300,127.022 320.012 M226.355 320.012 C 227.238 320.484,227.309 325.106,226.448 326.057 C 224.800 327.878,222.593 326.264,222.549 323.206 C 222.505 320.212,224.151 318.832,226.355 320.012 M177.000 324.814 C 177.000 325.868,175.846 326.667,174.326 326.667 C 172.840 326.667,172.234 326.142,172.704 325.263 C 173.478 323.818,177.000 323.450,177.000 324.814 " stroke="none" fill="#c4acd4" fill-rule="evenodd"></path><path id="path3" d="M156.830 185.000 C 156.830 220.842,156.869 235.504,156.917 217.583 C 156.964 199.662,156.964 170.337,156.917 152.417 C 156.869 134.496,156.830 149.158,156.830 185.000 M191.148 158.833 C 191.148 164.517,191.194 166.889,191.249 164.104 C 191.305 161.320,191.305 156.670,191.249 153.771 C 191.194 150.872,191.148 153.150,191.148 158.833 M237.153 183.667 C 237.153 191.642,237.196 194.904,237.250 190.917 C 237.303 186.929,237.303 180.404,237.250 176.417 C 237.196 172.429,237.153 175.692,237.153 183.667 M191.150 209.500 C 191.150 215.917,191.195 218.494,191.250 215.228 C 191.304 211.963,191.304 206.713,191.249 203.562 C 191.195 200.411,191.150 203.083,191.150 209.500 M149.917 284.917 C 177.462 284.964,222.537 284.964,250.083 284.917 C 277.629 284.870,255.092 284.831,200.000 284.831 C 144.908 284.831,122.371 284.870,149.917 284.917 M192.440 312.333 C 192.440 313.525,192.501 314.012,192.574 313.417 C 192.648 312.821,192.648 311.846,192.574 311.250 C 192.501 310.654,192.440 311.142,192.440 312.333 M226.785 313.167 C 226.784 314.817,226.840 315.534,226.910 314.760 C 226.980 313.986,226.981 312.636,226.912 311.760 C 226.843 310.884,226.786 311.517,226.785 313.167 M68.814 321.000 C 68.814 326.225,68.860 328.362,68.916 325.750 C 68.972 323.137,68.972 318.862,68.916 316.250 C 68.860 313.637,68.814 315.775,68.814 321.000 M196.804 320.000 C 196.804 323.208,196.854 324.521,196.915 322.917 C 196.976 321.313,196.976 318.688,196.915 317.083 C 196.854 315.479,196.804 316.792,196.804 320.000 M280.845 315.321 C 280.324 315.865,279.748 316.217,279.564 316.103 C 279.367 315.982,279.335 316.067,279.486 316.311 C 279.698 316.654,282.000 314.936,282.000 314.435 C 282.000 314.190,281.731 314.396,280.845 315.321 M92.142 323.167 C 92.142 327.200,92.190 328.804,92.249 326.732 C 92.308 324.659,92.307 321.359,92.249 319.398 C 92.190 317.438,92.142 319.133,92.142 323.167 M267.767 321.000 C 267.767 322.008,267.829 322.421,267.905 321.917 C 267.982 321.412,267.982 320.587,267.905 320.083 C 267.829 319.579,267.767 319.992,267.767 321.000 M272.607 320.254 C 272.533 320.761,272.576 321.548,272.703 322.004 C 272.870 322.604,272.943 322.348,272.967 321.083 C 273.003 319.189,272.824 318.777,272.607 320.254 M98.135 325.167 C 98.135 328.100,98.186 329.255,98.248 327.734 C 98.310 326.213,98.310 323.813,98.247 322.401 C 98.185 320.989,98.135 322.233,98.135 325.167 M226.664 322.932 L 226.828 325.833 226.929 323.198 C 226.984 321.749,226.911 320.443,226.765 320.297 C 226.619 320.150,226.574 321.336,226.664 322.932 M305.704 321.151 C 306.000 321.526,306.408 322.133,306.611 322.500 C 306.814 322.867,306.984 322.982,306.990 322.755 C 306.995 322.529,306.587 321.922,306.083 321.406 C 305.579 320.890,305.409 320.775,305.704 321.151 M330.704 321.151 C 331.000 321.526,331.408 322.133,331.611 322.500 C 331.814 322.867,331.984 322.982,331.990 322.755 C 331.995 322.529,331.587 321.922,331.083 321.406 C 330.579 320.890,330.409 320.775,330.704 321.151 M101.800 325.500 C 101.800 328.250,101.852 329.331,101.915 327.901 C 101.977 326.472,101.977 324.222,101.914 322.901 C 101.851 321.581,101.800 322.750,101.800 325.500 M181.799 325.667 C 181.799 328.325,181.851 329.412,181.914 328.083 C 181.977 326.754,181.977 324.579,181.914 323.250 C 181.851 321.921,181.799 323.008,181.799 325.667 M117.757 323.000 C 117.757 323.825,117.822 324.162,117.902 323.750 C 117.981 323.337,117.981 322.662,117.902 322.250 C 117.822 321.837,117.757 322.175,117.757 323.000 M149.126 326.667 C 149.126 328.775,149.180 329.637,149.246 328.583 C 149.312 327.529,149.312 325.804,149.246 324.750 C 149.180 323.696,149.126 324.558,149.126 326.667 M307.091 324.667 C 307.091 325.492,307.156 325.829,307.235 325.417 C 307.315 325.004,307.315 324.329,307.235 323.917 C 307.156 323.504,307.091 323.842,307.091 324.667 M332.091 324.667 C 332.091 325.492,332.156 325.829,332.235 325.417 C 332.315 325.004,332.315 324.329,332.235 323.917 C 332.156 323.504,332.091 323.842,332.091 324.667 M293.157 327.344 C 292.562 328.001,292.563 328.037,293.171 328.594 C 293.765 329.137,293.774 329.136,293.352 328.577 C 292.974 328.076,292.997 327.889,293.506 327.327 C 293.834 326.964,294.028 326.667,293.937 326.667 C 293.845 326.667,293.494 326.971,293.157 327.344 M318.157 327.344 C 317.562 328.001,317.563 328.037,318.171 328.594 C 318.765 329.137,318.774 329.136,318.352 328.577 C 317.974 328.076,317.997 327.889,318.506 327.327 C 318.834 326.964,319.028 326.667,318.937 326.667 C 318.845 326.667,318.494 326.971,318.157 327.344 " stroke="none" fill="#d4c4dc" fill-rule="evenodd"></path><path id="path4" d="" stroke="none" fill="#e4e4100" fill-rule="evenodd"></path></g></svg>